<svg width="11430" height="4394" viewBox="0 0 11430 4394" fill="none" xmlns="http://www.w3.org/2000/svg">
<path d="M1 3966H672.5L1935.5 608.5L3198.5 3966H3923.5H4875.5H7434C7624 3966 7682.5 3596.33 7688 3411.5V1H7098V3040C7098 3163.83 7046.7 3411.5 6841.5 3411.5H5418.5C5172.5 3411.5 5136.33 3163.83 5149 3040V1H4597.5V3411.5H3705.76L2366.5 1H1533L1 3966Z" fill="black" stroke="black"/>
<path d="M2443.05 3907.41C2322.61 3952.98 2185.89 3975.77 2032.9 3975.77C1531.6 3975.77 1280.95 3733.25 1280.95 3248.23C1280.95 2789.24 1531.6 2559.75 2032.9 2559.75C2185.89 2559.75 2322.61 2582.54 2443.05 2628.11V2862.48C2322.61 2810.4 2192.4 2784.36 2052.43 2784.36C1717.14 2784.36 1549.5 2938.98 1549.5 3248.23C1549.5 3583.51 1717.14 3751.16 2052.43 3751.16C2192.4 3751.16 2322.61 3725.11 2443.05 3673.03V3907.41Z" fill="black"/>
<path d="M8185.67 3793V2396.52H8810.67C9095.83 2396.52 9238.41 2527.7 9238.41 2790.07C9238.41 3074.58 9043.42 3246.78 8653.45 3306.67L8616.34 3076.2C8850.71 3033.89 8967.9 2941.11 8967.9 2797.88C8967.9 2682 8909.96 2624.05 8794.07 2624.05H8444.46V3793H8185.67ZM9337.04 3473.66C9337.04 3269.89 9485.48 3168 9782.35 3168C9852.01 3168 9921.67 3174.51 9991.34 3187.53V3110.38C9991.34 3018.59 9925.26 2972.69 9793.09 2972.69C9681.11 2972.69 9556.77 2988.96 9420.05 3021.52V2816.44C9556.77 2783.89 9681.11 2767.61 9793.09 2767.61C10097.8 2767.61 10250.1 2880.24 10250.1 3105.5V3793H10099.7L10007.9 3701.2C9918.74 3762.4 9820.44 3793 9713.02 3793C9462.36 3793 9337.04 3686.55 9337.04 3473.66ZM9991.34 3363.31C9926.23 3350.29 9856.57 3343.78 9782.35 3343.78C9658 3343.78 9595.83 3386.1 9595.83 3470.73C9595.83 3561.88 9647.91 3607.45 9752.08 3607.45C9838.02 3607.45 9917.77 3580.76 9991.34 3527.38V3363.31ZM10373.2 2767.61H10647.6L10906.4 3505.89L11159.3 2767.61H11428.8L11003.1 3823.27C10927.5 4009.47 10806.8 4141.96 10640.8 4220.73L10515.8 4043.98C10630.3 3993.85 10713.7 3912.14 10765.8 3798.86L10373.2 2767.61Z" fill="black"/>
</svg>
